<?xml version="1.0" standalone="no"?>
<!DOCTYPE svg PUBLIC "-//W3C//DTD SVG 20010904//EN"
 "http://www.w3.org/TR/2001/REC-SVG-20010904/DTD/svg10.dtd">
<svg version="1.0" xmlns="http://www.w3.org/2000/svg"
 width="16.000000pt" height="16.000000pt" viewBox="0 0 16.000000 16.000000"
 preserveAspectRatio="xMidYMid meet">

<g transform="translate(0.000000,16.000000) scale(0.100000,-0.100000)"
fill="#000000" stroke="none">
<path d="M21 115 c2 -33 3 -35 6 -11 4 22 7 26 14 15 7 -12 9 -12 10 1 1 8 5
2 9 -15 7 -29 8 -29 9 9 1 31 -2 36 -12 27 -10 -8 -17 -7 -25 1 -9 9 -12 3
-11 -27z"/>
<path d="M94 138 c-4 -6 0 -16 9 -23 23 -17 21 -28 -3 -22 -11 3 -18 1 -14 -4
7 -13 31 -11 40 3 4 6 0 16 -9 23 -22 16 -21 22 1 28 15 4 15 5 0 6 -9 0 -20
-4 -24 -11z"/>
<path d="M21 38 c0 -18 3 -27 6 -20 3 9 9 10 17 3 9 -7 12 -3 11 17 0 17 -6
28 -17 30 -14 3 -18 -3 -17 -30z m29 12 c0 -5 -4 -10 -10 -10 -5 0 -10 5 -10
10 0 6 5 10 10 10 6 0 10 -4 10 -10z"/>
<path d="M70 40 c0 -22 5 -30 18 -30 14 0 15 2 2 10 -13 9 -13 11 0 20 13 9
13 10 0 10 -13 0 -13 1 0 10 13 8 12 10 -2 10 -13 0 -18 -8 -18 -30z"/>
<path d="M114 55 c-8 -20 2 -45 18 -44 10 0 10 2 1 6 -7 2 -13 13 -13 23 0 10
6 21 13 23 9 4 9 6 -1 6 -7 1 -15 -6 -18 -14z"/>
</g>
</svg>
